<mxfile host="app.diagrams.net" modified="2024-07-02T13:14:32.876Z" agent="Mozilla/5.0 (Windows NT 10.0; Win64; x64) AppleWebKit/537.36 (KHTML, like Gecko) Chrome/126.0.0.0 Safari/537.36" etag="PV5NJZXXcH0G5bwg2_Ie" version="24.6.4" type="github">
  <diagram name="Page-1" id="lzu_X96CEKzO7oHDuTMm">
    <mxGraphModel dx="2963" dy="1103" grid="1" gridSize="10" guides="1" tooltips="1" connect="1" arrows="1" fold="1" page="1" pageScale="1" pageWidth="850" pageHeight="1100" math="0" shadow="0">
      <root>
        <mxCell id="0" />
        <mxCell id="1" parent="0" />
        <mxCell id="X_tJtvfWwpmisPSyXEL7-6" value="&lt;font style=&quot;font-size: 23px;&quot;&gt;K8S&lt;/font&gt;" style="swimlane;whiteSpace=wrap;html=1;startSize=40;gradientColor=none;swimlaneFillColor=none;" vertex="1" parent="1">
          <mxGeometry x="300" y="60" width="760" height="910" as="geometry" />
        </mxCell>
        <mxCell id="X_tJtvfWwpmisPSyXEL7-7" value="" style="aspect=fixed;sketch=0;html=1;dashed=0;whitespace=wrap;verticalLabelPosition=bottom;verticalAlign=top;fillColor=#2875E2;strokeColor=#ffffff;points=[[0.005,0.63,0],[0.1,0.2,0],[0.9,0.2,0],[0.5,0,0],[0.995,0.63,0],[0.72,0.99,0],[0.5,1,0],[0.28,0.99,0]];shape=mxgraph.kubernetes.icon2;prIcon=api" vertex="1" parent="X_tJtvfWwpmisPSyXEL7-6">
          <mxGeometry x="265.41999999999996" width="39.58" height="38" as="geometry" />
        </mxCell>
        <mxCell id="X_tJtvfWwpmisPSyXEL7-23" style="edgeStyle=orthogonalEdgeStyle;rounded=0;orthogonalLoop=1;jettySize=auto;html=1;" edge="1" parent="X_tJtvfWwpmisPSyXEL7-6" source="X_tJtvfWwpmisPSyXEL7-11" target="X_tJtvfWwpmisPSyXEL7-19">
          <mxGeometry relative="1" as="geometry">
            <Array as="points">
              <mxPoint x="327" y="90" />
            </Array>
          </mxGeometry>
        </mxCell>
        <mxCell id="X_tJtvfWwpmisPSyXEL7-24" style="edgeStyle=orthogonalEdgeStyle;rounded=0;orthogonalLoop=1;jettySize=auto;html=1;entryX=0;entryY=0.5;entryDx=0;entryDy=0;" edge="1" parent="X_tJtvfWwpmisPSyXEL7-6" source="X_tJtvfWwpmisPSyXEL7-11" target="X_tJtvfWwpmisPSyXEL7-21">
          <mxGeometry relative="1" as="geometry">
            <Array as="points">
              <mxPoint x="327" y="170" />
              <mxPoint x="532" y="170" />
            </Array>
          </mxGeometry>
        </mxCell>
        <mxCell id="X_tJtvfWwpmisPSyXEL7-11" value="Identity Api" style="rounded=1;whiteSpace=wrap;html=1;" vertex="1" parent="X_tJtvfWwpmisPSyXEL7-6">
          <mxGeometry x="267" y="100" width="120" height="60" as="geometry" />
        </mxCell>
        <mxCell id="X_tJtvfWwpmisPSyXEL7-19" value="Identity DB" style="shape=cylinder3;whiteSpace=wrap;html=1;boundedLbl=1;backgroundOutline=1;size=15;" vertex="1" parent="X_tJtvfWwpmisPSyXEL7-6">
          <mxGeometry x="547" y="50" width="60" height="80" as="geometry" />
        </mxCell>
        <mxCell id="X_tJtvfWwpmisPSyXEL7-54" style="rounded=0;orthogonalLoop=1;jettySize=auto;html=1;exitX=1;exitY=0.5;exitDx=0;exitDy=0;entryX=1;entryY=0.5;entryDx=0;entryDy=0;strokeColor=default;startArrow=classic;startFill=1;edgeStyle=orthogonalEdgeStyle;" edge="1" parent="X_tJtvfWwpmisPSyXEL7-6" source="X_tJtvfWwpmisPSyXEL7-21">
          <mxGeometry relative="1" as="geometry">
            <mxPoint x="619.5" y="850" as="targetPoint" />
            <Array as="points">
              <mxPoint x="667" y="170" />
              <mxPoint x="667" y="850" />
            </Array>
          </mxGeometry>
        </mxCell>
        <mxCell id="X_tJtvfWwpmisPSyXEL7-21" value="Identity RabbitMQ" style="shape=hexagon;perimeter=hexagonPerimeter2;whiteSpace=wrap;html=1;fixedSize=1;" vertex="1" parent="X_tJtvfWwpmisPSyXEL7-6">
          <mxGeometry x="532" y="140" width="90" height="60" as="geometry" />
        </mxCell>
        <mxCell id="X_tJtvfWwpmisPSyXEL7-30" style="edgeStyle=orthogonalEdgeStyle;rounded=0;orthogonalLoop=1;jettySize=auto;html=1;" edge="1" parent="X_tJtvfWwpmisPSyXEL7-6" source="X_tJtvfWwpmisPSyXEL7-32" target="X_tJtvfWwpmisPSyXEL7-33">
          <mxGeometry relative="1" as="geometry">
            <Array as="points">
              <mxPoint x="327" y="260" />
            </Array>
          </mxGeometry>
        </mxCell>
        <mxCell id="X_tJtvfWwpmisPSyXEL7-31" style="edgeStyle=orthogonalEdgeStyle;rounded=0;orthogonalLoop=1;jettySize=auto;html=1;entryX=0;entryY=0.5;entryDx=0;entryDy=0;" edge="1" parent="X_tJtvfWwpmisPSyXEL7-6" source="X_tJtvfWwpmisPSyXEL7-32" target="X_tJtvfWwpmisPSyXEL7-34">
          <mxGeometry relative="1" as="geometry">
            <Array as="points">
              <mxPoint x="327" y="340" />
              <mxPoint x="532" y="340" />
            </Array>
          </mxGeometry>
        </mxCell>
        <mxCell id="X_tJtvfWwpmisPSyXEL7-32" value="Company Api" style="rounded=1;whiteSpace=wrap;html=1;" vertex="1" parent="X_tJtvfWwpmisPSyXEL7-6">
          <mxGeometry x="267" y="270" width="120" height="60" as="geometry" />
        </mxCell>
        <mxCell id="X_tJtvfWwpmisPSyXEL7-33" value="Company DB" style="shape=cylinder3;whiteSpace=wrap;html=1;boundedLbl=1;backgroundOutline=1;size=15;" vertex="1" parent="X_tJtvfWwpmisPSyXEL7-6">
          <mxGeometry x="547" y="220" width="60" height="80" as="geometry" />
        </mxCell>
        <mxCell id="X_tJtvfWwpmisPSyXEL7-58" style="edgeStyle=orthogonalEdgeStyle;rounded=0;orthogonalLoop=1;jettySize=auto;html=1;endArrow=none;endFill=0;startArrow=classic;startFill=1;" edge="1" parent="X_tJtvfWwpmisPSyXEL7-6" source="X_tJtvfWwpmisPSyXEL7-34">
          <mxGeometry relative="1" as="geometry">
            <mxPoint x="667" y="340" as="targetPoint" />
          </mxGeometry>
        </mxCell>
        <mxCell id="X_tJtvfWwpmisPSyXEL7-34" value="Company&lt;div&gt;RabbitMQ&lt;/div&gt;" style="shape=hexagon;perimeter=hexagonPerimeter2;whiteSpace=wrap;html=1;fixedSize=1;" vertex="1" parent="X_tJtvfWwpmisPSyXEL7-6">
          <mxGeometry x="532" y="310" width="90" height="60" as="geometry" />
        </mxCell>
        <mxCell id="X_tJtvfWwpmisPSyXEL7-35" style="edgeStyle=orthogonalEdgeStyle;rounded=0;orthogonalLoop=1;jettySize=auto;html=1;" edge="1" parent="X_tJtvfWwpmisPSyXEL7-6" source="X_tJtvfWwpmisPSyXEL7-37" target="X_tJtvfWwpmisPSyXEL7-38">
          <mxGeometry relative="1" as="geometry">
            <Array as="points">
              <mxPoint x="327" y="430" />
            </Array>
          </mxGeometry>
        </mxCell>
        <mxCell id="X_tJtvfWwpmisPSyXEL7-36" style="edgeStyle=orthogonalEdgeStyle;rounded=0;orthogonalLoop=1;jettySize=auto;html=1;entryX=0;entryY=0.5;entryDx=0;entryDy=0;" edge="1" parent="X_tJtvfWwpmisPSyXEL7-6" source="X_tJtvfWwpmisPSyXEL7-37" target="X_tJtvfWwpmisPSyXEL7-39">
          <mxGeometry relative="1" as="geometry">
            <Array as="points">
              <mxPoint x="327" y="510" />
              <mxPoint x="532" y="510" />
            </Array>
          </mxGeometry>
        </mxCell>
        <mxCell id="X_tJtvfWwpmisPSyXEL7-37" value="Common Api" style="rounded=1;whiteSpace=wrap;html=1;" vertex="1" parent="X_tJtvfWwpmisPSyXEL7-6">
          <mxGeometry x="267" y="440" width="120" height="60" as="geometry" />
        </mxCell>
        <mxCell id="X_tJtvfWwpmisPSyXEL7-38" value="Common DB" style="shape=cylinder3;whiteSpace=wrap;html=1;boundedLbl=1;backgroundOutline=1;size=15;" vertex="1" parent="X_tJtvfWwpmisPSyXEL7-6">
          <mxGeometry x="547" y="390" width="60" height="80" as="geometry" />
        </mxCell>
        <mxCell id="X_tJtvfWwpmisPSyXEL7-60" style="edgeStyle=orthogonalEdgeStyle;rounded=0;orthogonalLoop=1;jettySize=auto;html=1;endArrow=none;endFill=0;startArrow=classic;startFill=1;" edge="1" parent="X_tJtvfWwpmisPSyXEL7-6" source="X_tJtvfWwpmisPSyXEL7-39">
          <mxGeometry relative="1" as="geometry">
            <mxPoint x="667" y="510" as="targetPoint" />
          </mxGeometry>
        </mxCell>
        <mxCell id="X_tJtvfWwpmisPSyXEL7-39" value="Common RabbitMQ" style="shape=hexagon;perimeter=hexagonPerimeter2;whiteSpace=wrap;html=1;fixedSize=1;" vertex="1" parent="X_tJtvfWwpmisPSyXEL7-6">
          <mxGeometry x="532" y="480" width="90" height="60" as="geometry" />
        </mxCell>
        <mxCell id="X_tJtvfWwpmisPSyXEL7-44" style="edgeStyle=orthogonalEdgeStyle;rounded=0;orthogonalLoop=1;jettySize=auto;html=1;" edge="1" parent="X_tJtvfWwpmisPSyXEL7-6" source="X_tJtvfWwpmisPSyXEL7-46" target="X_tJtvfWwpmisPSyXEL7-47">
          <mxGeometry relative="1" as="geometry">
            <Array as="points">
              <mxPoint x="327" y="600" />
            </Array>
          </mxGeometry>
        </mxCell>
        <mxCell id="X_tJtvfWwpmisPSyXEL7-45" style="edgeStyle=orthogonalEdgeStyle;rounded=0;orthogonalLoop=1;jettySize=auto;html=1;entryX=0;entryY=0.5;entryDx=0;entryDy=0;" edge="1" parent="X_tJtvfWwpmisPSyXEL7-6" source="X_tJtvfWwpmisPSyXEL7-46" target="X_tJtvfWwpmisPSyXEL7-48">
          <mxGeometry relative="1" as="geometry">
            <Array as="points">
              <mxPoint x="327" y="680" />
              <mxPoint x="532" y="680" />
            </Array>
          </mxGeometry>
        </mxCell>
        <mxCell id="X_tJtvfWwpmisPSyXEL7-46" value="CustomerAndSupplier&amp;nbsp; Api" style="rounded=1;whiteSpace=wrap;html=1;" vertex="1" parent="X_tJtvfWwpmisPSyXEL7-6">
          <mxGeometry x="267" y="610" width="120" height="60" as="geometry" />
        </mxCell>
        <mxCell id="X_tJtvfWwpmisPSyXEL7-47" value="&lt;font style=&quot;font-size: 10px;&quot;&gt;Customer And Supplier DB&lt;/font&gt;" style="shape=cylinder3;whiteSpace=wrap;html=1;boundedLbl=1;backgroundOutline=1;size=15;" vertex="1" parent="X_tJtvfWwpmisPSyXEL7-6">
          <mxGeometry x="547" y="560" width="60" height="80" as="geometry" />
        </mxCell>
        <mxCell id="X_tJtvfWwpmisPSyXEL7-61" style="edgeStyle=orthogonalEdgeStyle;rounded=0;orthogonalLoop=1;jettySize=auto;html=1;endArrow=none;endFill=0;startArrow=classic;startFill=1;" edge="1" parent="X_tJtvfWwpmisPSyXEL7-6" source="X_tJtvfWwpmisPSyXEL7-48">
          <mxGeometry relative="1" as="geometry">
            <mxPoint x="667" y="680" as="targetPoint" />
          </mxGeometry>
        </mxCell>
        <mxCell id="X_tJtvfWwpmisPSyXEL7-48" value="Customer&amp;nbsp;&lt;div&gt;And Supplier RabbitMQ&lt;/div&gt;" style="shape=hexagon;perimeter=hexagonPerimeter2;whiteSpace=wrap;html=1;fixedSize=1;" vertex="1" parent="X_tJtvfWwpmisPSyXEL7-6">
          <mxGeometry x="532" y="650" width="90" height="60" as="geometry" />
        </mxCell>
        <mxCell id="X_tJtvfWwpmisPSyXEL7-49" style="edgeStyle=orthogonalEdgeStyle;rounded=0;orthogonalLoop=1;jettySize=auto;html=1;" edge="1" parent="X_tJtvfWwpmisPSyXEL7-6" source="X_tJtvfWwpmisPSyXEL7-51" target="X_tJtvfWwpmisPSyXEL7-52">
          <mxGeometry relative="1" as="geometry">
            <Array as="points">
              <mxPoint x="324.5" y="770" />
            </Array>
          </mxGeometry>
        </mxCell>
        <mxCell id="X_tJtvfWwpmisPSyXEL7-50" style="edgeStyle=orthogonalEdgeStyle;rounded=0;orthogonalLoop=1;jettySize=auto;html=1;entryX=0;entryY=0.5;entryDx=0;entryDy=0;" edge="1" parent="X_tJtvfWwpmisPSyXEL7-6" source="X_tJtvfWwpmisPSyXEL7-51">
          <mxGeometry relative="1" as="geometry">
            <Array as="points">
              <mxPoint x="324.5" y="850" />
              <mxPoint x="529.5" y="850" />
            </Array>
            <mxPoint x="529.5" y="850" as="targetPoint" />
          </mxGeometry>
        </mxCell>
        <mxCell id="X_tJtvfWwpmisPSyXEL7-51" value="StockAndServices&lt;div&gt;Api&lt;/div&gt;" style="rounded=1;whiteSpace=wrap;html=1;" vertex="1" parent="X_tJtvfWwpmisPSyXEL7-6">
          <mxGeometry x="264.5" y="780" width="120" height="60" as="geometry" />
        </mxCell>
        <mxCell id="X_tJtvfWwpmisPSyXEL7-52" value="&lt;font style=&quot;font-size: 10px;&quot;&gt;Stock&lt;/font&gt;&lt;div style=&quot;font-size: 10px;&quot;&gt;&lt;font style=&quot;font-size: 10px;&quot;&gt;And&lt;/font&gt;&lt;/div&gt;&lt;div style=&quot;font-size: 10px;&quot;&gt;&lt;font style=&quot;font-size: 10px;&quot;&gt;Services&lt;/font&gt;&lt;div style=&quot;font-size: 10px;&quot;&gt;&lt;font style=&quot;font-size: 10px;&quot;&gt;DB&lt;/font&gt;&lt;/div&gt;&lt;/div&gt;" style="shape=cylinder3;whiteSpace=wrap;html=1;boundedLbl=1;backgroundOutline=1;size=15;fontSize=10;" vertex="1" parent="X_tJtvfWwpmisPSyXEL7-6">
          <mxGeometry x="544.5" y="730" width="60" height="80" as="geometry" />
        </mxCell>
        <mxCell id="X_tJtvfWwpmisPSyXEL7-53" value="Stock&lt;div&gt;And&amp;nbsp;&lt;span style=&quot;background-color: initial;&quot;&gt;Services&lt;/span&gt;&lt;/div&gt;&lt;div&gt;RabbitMQ&lt;/div&gt;" style="shape=hexagon;perimeter=hexagonPerimeter2;whiteSpace=wrap;html=1;fixedSize=1;" vertex="1" parent="X_tJtvfWwpmisPSyXEL7-6">
          <mxGeometry x="532" y="820" width="90" height="60" as="geometry" />
        </mxCell>
        <mxCell id="X_tJtvfWwpmisPSyXEL7-64" style="edgeStyle=orthogonalEdgeStyle;rounded=0;orthogonalLoop=1;jettySize=auto;html=1;entryX=0;entryY=0.5;entryDx=0;entryDy=0;" edge="1" parent="X_tJtvfWwpmisPSyXEL7-6" source="X_tJtvfWwpmisPSyXEL7-63" target="X_tJtvfWwpmisPSyXEL7-11">
          <mxGeometry relative="1" as="geometry" />
        </mxCell>
        <mxCell id="X_tJtvfWwpmisPSyXEL7-65" style="edgeStyle=orthogonalEdgeStyle;rounded=0;orthogonalLoop=1;jettySize=auto;html=1;exitX=1;exitY=0.5;exitDx=0;exitDy=0;entryX=0;entryY=0.5;entryDx=0;entryDy=0;" edge="1" parent="X_tJtvfWwpmisPSyXEL7-6" source="X_tJtvfWwpmisPSyXEL7-63" target="X_tJtvfWwpmisPSyXEL7-32">
          <mxGeometry relative="1" as="geometry" />
        </mxCell>
        <mxCell id="X_tJtvfWwpmisPSyXEL7-66" style="edgeStyle=orthogonalEdgeStyle;rounded=0;orthogonalLoop=1;jettySize=auto;html=1;exitX=1;exitY=0.5;exitDx=0;exitDy=0;entryX=0;entryY=0.5;entryDx=0;entryDy=0;" edge="1" parent="X_tJtvfWwpmisPSyXEL7-6" source="X_tJtvfWwpmisPSyXEL7-63" target="X_tJtvfWwpmisPSyXEL7-37">
          <mxGeometry relative="1" as="geometry" />
        </mxCell>
        <mxCell id="X_tJtvfWwpmisPSyXEL7-67" style="edgeStyle=orthogonalEdgeStyle;rounded=0;orthogonalLoop=1;jettySize=auto;html=1;exitX=1;exitY=0.5;exitDx=0;exitDy=0;entryX=0;entryY=0.5;entryDx=0;entryDy=0;" edge="1" parent="X_tJtvfWwpmisPSyXEL7-6" source="X_tJtvfWwpmisPSyXEL7-63" target="X_tJtvfWwpmisPSyXEL7-46">
          <mxGeometry relative="1" as="geometry" />
        </mxCell>
        <mxCell id="X_tJtvfWwpmisPSyXEL7-68" style="edgeStyle=orthogonalEdgeStyle;rounded=0;orthogonalLoop=1;jettySize=auto;html=1;exitX=1;exitY=0.5;exitDx=0;exitDy=0;entryX=0;entryY=0.5;entryDx=0;entryDy=0;" edge="1" parent="X_tJtvfWwpmisPSyXEL7-6" source="X_tJtvfWwpmisPSyXEL7-63" target="X_tJtvfWwpmisPSyXEL7-51">
          <mxGeometry relative="1" as="geometry" />
        </mxCell>
        <mxCell id="X_tJtvfWwpmisPSyXEL7-63" value="Api Gateway" style="rounded=1;whiteSpace=wrap;html=1;" vertex="1" parent="X_tJtvfWwpmisPSyXEL7-6">
          <mxGeometry x="50" y="410" width="110" height="140" as="geometry" />
        </mxCell>
        <mxCell id="X_tJtvfWwpmisPSyXEL7-70" style="edgeStyle=orthogonalEdgeStyle;rounded=0;orthogonalLoop=1;jettySize=auto;html=1;entryX=0;entryY=0.5;entryDx=0;entryDy=0;" edge="1" parent="1" source="X_tJtvfWwpmisPSyXEL7-69" target="X_tJtvfWwpmisPSyXEL7-63">
          <mxGeometry relative="1" as="geometry" />
        </mxCell>
        <mxCell id="X_tJtvfWwpmisPSyXEL7-69" value="Clients" style="shape=parallelogram;perimeter=parallelogramPerimeter;whiteSpace=wrap;html=1;fixedSize=1;" vertex="1" parent="1">
          <mxGeometry x="70" y="510" width="120" height="60" as="geometry" />
        </mxCell>
      </root>
    </mxGraphModel>
  </diagram>
</mxfile>
